<svg xmlns="http://www.w3.org/2000/svg" viewBox="0 0 32 32">
  <rect width="32" height="32" rx="6" fill="#080c10"/>
  <path
    transform="translate(7.29, 23.5) scale(0.02, -0.02)"
    fill="#14b8a6"
    d="M497 -13Q385 -13 305.0 19.5Q225 52 175.5 109.0Q126 166 102.5 239.5Q79 313 79 394Q79 489 111.0 580.0Q143 671 197 736H303Q259 676 230.5 624.0Q202 572 189.0 517.5Q176 463 176 394Q176 301 210.5 227.5Q245 154 316.0 111.5Q387 69 497 69Q567 69 611.0 90.0Q655 111 676.0 146.0Q697 181 697 223Q697 263 669.5 291.0Q642 319 595.0 334.0Q548 349 488 349H394L417 422L647 635H351L376 714H794L787 652L539 422Q616 422 674.0 395.0Q732 368 764.5 323.0Q797 278 797 223Q797 179 782.0 137.0Q767 95 733.0 61.0Q699 27 641.0 7.0Q583 -13 497 -13Z"
  />
</svg>
