<?xml version="1.0" encoding="UTF-8"?>
<!DOCTYPE svg PUBLIC "-//W3C//DTD SVG 1.1//EN" "http://www.w3.org/Graphics/SVG/1.1/DTD/svg11.dtd">
<!-- Creator: CorelDRAW 2019 (64-Bit Not for commercial use) -->
<svg xmlns="http://www.w3.org/2000/svg" xml:space="preserve" width="400px" height="400px" version="1.1" style="shape-rendering:geometricPrecision; text-rendering:geometricPrecision; image-rendering:optimizeQuality; fill-rule:evenodd; clip-rule:evenodd"
viewBox="0 0 76.25 76.25"
 xmlns:xlink="http://www.w3.org/1999/xlink"
 xmlns:xodm="http://www.corel.com/coreldraw/odm/2003">
 <defs>
  <style type="text/css">
   <![CDATA[
    .fil0 {fill:none}
    .fil1 {fill:black}
    .fil2 {fill:black}
   ]]>
  </style>
 </defs>
 <g id="Layer_x0020_1">
  <metadata id="CorelCorpID_0Corel-Layer"/>
  <rect class="fil0" width="76.25" height="76.25"/>
  <g id="_2748022943120">
   <g>
    <path class="fil1" d="M0 2.37c0,2.41 1.39,5.28 3.22,7.12 1.84,1.83 4.71,3.22 7.12,3.22l2.37 0 0 -2.37c0,-2.41 -1.39,-5.28 -3.22,-7.12 -1.84,-1.83 -4.71,-3.22 -7.12,-3.22l-2.37 0 0 2.37zm1.52 -0.85c0.01,2.54 1.01,4.99 2.84,6.83 1.83,1.83 4.28,2.83 6.83,2.84 -0.01,-2.55 -1.01,-5 -2.84,-6.83 -1.84,-1.83 -4.29,-2.83 -6.83,-2.84z"/>
    <path class="fil1" d="M25.42 2.37c0,2.41 -1.39,5.28 -3.23,7.12 -1.83,1.83 -4.7,3.22 -7.11,3.22l-2.37 0 0 -2.37c0,-2.41 1.38,-5.28 3.22,-7.12 1.84,-1.83 4.71,-3.22 7.12,-3.22l2.37 0 0 2.37zm-1.52 -0.85c-0.01,2.54 -1.01,4.99 -2.85,6.83 -1.83,1.83 -4.28,2.83 -6.83,2.84 0.01,-2.55 1.02,-5 2.85,-6.83 1.83,-1.83 4.28,-2.83 6.83,-2.84z"/>
    <path class="fil1" d="M0 23.05c0,-2.41 1.39,-5.28 3.22,-7.12 1.84,-1.84 4.71,-3.22 7.12,-3.22l2.37 0 0 2.37c0,2.41 -1.39,5.28 -3.22,7.11 -1.84,1.84 -4.71,3.23 -7.12,3.23l-2.37 0 0 -2.37zm1.52 0.85c0.01,-2.55 1.01,-5 2.84,-6.83 1.83,-1.83 4.28,-2.84 6.83,-2.85 -0.01,2.55 -1.01,5 -2.84,6.83 -1.84,1.84 -4.29,2.84 -6.83,2.85z"/>
    <path class="fil1" d="M25.42 23.05c0,-2.41 -1.39,-5.28 -3.23,-7.12 -1.83,-1.84 -4.7,-3.22 -7.11,-3.22l-2.37 0 0 2.37c0,2.41 1.38,5.28 3.22,7.11 1.84,1.84 4.71,3.23 7.12,3.23l2.37 0 0 -2.37zm-1.52 0.85c-0.01,-2.55 -1.01,-5 -2.85,-6.83 -1.83,-1.83 -4.28,-2.84 -6.83,-2.85 0.01,2.55 1.02,5 2.85,6.83 1.83,1.84 4.28,2.84 6.83,2.85z"/>
    <path class="fil1" d="M0 48.46c0,-2.41 1.39,-5.28 3.22,-7.12 1.84,-1.83 4.71,-3.22 7.12,-3.22l2.37 0 0 2.37c0,2.41 -1.39,5.28 -3.22,7.12 -1.84,1.84 -4.71,3.22 -7.12,3.22l-2.37 0 0 -2.37zm1.52 0.85c0.01,-2.54 1.01,-4.99 2.84,-6.83 1.83,-1.83 4.28,-2.83 6.83,-2.84 -0.01,2.55 -1.01,5 -2.84,6.83 -1.84,1.83 -4.29,2.84 -6.83,2.84z"/>
    <path class="fil1" d="M25.42 48.46c0,-2.41 -1.39,-5.28 -3.23,-7.12 -1.83,-1.83 -4.7,-3.22 -7.11,-3.22l-2.37 0 0 2.37c0,2.41 1.38,5.28 3.22,7.12 1.84,1.84 4.71,3.22 7.12,3.22l2.37 0 0 -2.37zm-1.52 0.85c-0.01,-2.54 -1.01,-4.99 -2.85,-6.83 -1.83,-1.83 -4.28,-2.83 -6.83,-2.84 0.01,2.55 1.02,5 2.85,6.83 1.83,1.83 4.28,2.84 6.83,2.84z"/>
    <path class="fil1" d="M0 27.78c0,2.41 1.39,5.28 3.22,7.12 1.84,1.84 4.71,3.22 7.12,3.22l2.37 0 0 -2.36c0,-2.42 -1.39,-5.29 -3.22,-7.12 -1.84,-1.84 -4.71,-3.22 -7.12,-3.22l-2.37 0 0 2.36zm1.52 -0.85c0.01,2.55 1.01,5 2.84,6.83 1.83,1.83 4.28,2.84 6.83,2.85 -0.01,-2.55 -1.01,-5 -2.84,-6.83 -1.84,-1.83 -4.29,-2.84 -6.83,-2.85z"/>
    <path class="fil1" d="M25.42 27.78c0,2.41 -1.39,5.28 -3.23,7.12 -1.83,1.84 -4.7,3.22 -7.11,3.22l-2.37 0 0 -2.36c0,-2.42 1.38,-5.29 3.22,-7.12 1.84,-1.84 4.71,-3.22 7.12,-3.22l2.37 0 0 2.36zm-1.52 -0.85c-0.01,2.55 -1.01,5 -2.85,6.83 -1.83,1.83 -4.28,2.84 -6.83,2.85 0.01,-2.55 1.02,-5 2.85,-6.83 1.83,-1.83 4.28,-2.84 6.83,-2.85z"/>
    <path class="fil1" d="M0 53.2c0,2.41 1.39,5.28 3.22,7.12 1.84,1.83 4.71,3.22 7.12,3.22l2.37 0 0 -2.37c0,-2.41 -1.39,-5.28 -3.22,-7.12 -1.84,-1.83 -4.71,-3.22 -7.12,-3.22l-2.37 0 0 2.37zm1.52 -0.85c0.01,2.54 1.01,4.99 2.84,6.83 1.83,1.83 4.28,2.83 6.83,2.84 -0.01,-2.54 -1.01,-5 -2.84,-6.83 -1.84,-1.83 -4.29,-2.83 -6.83,-2.84z"/>
    <path class="fil1" d="M25.42 53.2c0,2.41 -1.39,5.28 -3.23,7.12 -1.83,1.83 -4.7,3.22 -7.11,3.22l-2.37 0 0 -2.37c0,-2.41 1.38,-5.28 3.22,-7.12 1.84,-1.83 4.71,-3.22 7.12,-3.22l2.37 0 0 2.37zm-1.52 -0.85c-0.01,2.54 -1.01,4.99 -2.85,6.83 -1.83,1.83 -4.28,2.83 -6.83,2.84 0.01,-2.54 1.02,-5 2.85,-6.83 1.83,-1.83 4.28,-2.83 6.83,-2.84z"/>
    <path class="fil1" d="M0 73.88c0,-2.41 1.39,-5.28 3.22,-7.12 1.84,-1.84 4.71,-3.22 7.12,-3.22l2.37 0 0 2.37c0,2.41 -1.39,5.28 -3.22,7.11 -1.84,1.84 -4.71,3.23 -7.12,3.23l-2.37 0 0 -2.37zm1.52 0.85c0.01,-2.55 1.01,-5 2.84,-6.83 1.83,-1.83 4.28,-2.84 6.83,-2.85 -0.01,2.55 -1.01,5 -2.84,6.83 -1.84,1.84 -4.29,2.84 -6.83,2.85z"/>
    <path class="fil1" d="M25.42 73.88c0,-2.41 -1.39,-5.28 -3.23,-7.12 -1.83,-1.84 -4.7,-3.22 -7.11,-3.22l-2.37 0 0 2.37c0,2.41 1.38,5.28 3.22,7.11 1.84,1.84 4.71,3.23 7.12,3.23l2.37 0 0 -2.37zm-1.52 0.85c-0.01,-2.55 -1.01,-5 -2.85,-6.83 -1.83,-1.83 -4.28,-2.84 -6.83,-2.85 0.01,2.55 1.02,5 2.85,6.83 1.83,1.84 4.28,2.84 6.83,2.85z"/>
   </g>
   <g>
    <path class="fil1" d="M50.83 2.37c0,2.41 -1.38,5.28 -3.22,7.12 -1.84,1.83 -4.71,3.22 -7.12,3.22l-2.37 0 0 -2.37c0,-2.41 1.39,-5.28 3.22,-7.12 1.84,-1.83 4.71,-3.22 7.12,-3.22l2.37 0 0 2.37zm-1.52 -0.85c0,2.54 -1.01,4.99 -2.84,6.83 -1.83,1.83 -4.28,2.83 -6.83,2.84 0.01,-2.55 1.01,-5 2.84,-6.83 1.84,-1.83 4.29,-2.83 6.83,-2.84z"/>
    <path class="fil1" d="M25.42 2.37c0,2.41 1.38,5.28 3.22,7.12 1.83,1.83 4.7,3.22 7.12,3.22l2.36 0 0 -2.37c0,-2.41 -1.38,-5.28 -3.22,-7.12 -1.84,-1.83 -4.71,-3.22 -7.12,-3.22l-2.36 0 0 2.37zm1.51 -0.85c0.01,2.54 1.02,4.99 2.85,6.83 1.83,1.83 4.28,2.83 6.83,2.84 -0.01,-2.55 -1.02,-5 -2.85,-6.83 -1.83,-1.83 -4.28,-2.83 -6.83,-2.84z"/>
    <path class="fil1" d="M50.83 23.05c0,-2.41 -1.38,-5.28 -3.22,-7.12 -1.84,-1.84 -4.71,-3.22 -7.12,-3.22l-2.37 0 0 2.37c0,2.41 1.39,5.28 3.22,7.11 1.84,1.84 4.71,3.23 7.12,3.23l2.37 0 0 -2.37zm-1.52 0.85c0,-2.55 -1.01,-5 -2.84,-6.83 -1.83,-1.83 -4.28,-2.84 -6.83,-2.85 0.01,2.55 1.01,5 2.84,6.83 1.84,1.84 4.29,2.84 6.83,2.85z"/>
    <path class="fil2" d="M25.42 23.05c0,-2.41 1.38,-5.28 3.22,-7.12 1.83,-1.84 4.7,-3.22 7.12,-3.22l2.36 0 0 2.37c0,2.41 -1.38,5.28 -3.22,7.11 -1.84,1.84 -4.71,3.23 -7.12,3.23l-2.36 0 0 -2.37zm1.51 0.85c0.01,-2.55 1.02,-5 2.85,-6.83 1.83,-1.83 4.28,-2.84 6.83,-2.85 -0.01,2.55 -1.02,5 -2.85,6.83 -1.83,1.84 -4.28,2.84 -6.83,2.85z"/>
    <path class="fil1" d="M50.83 48.46c0,-2.41 -1.38,-5.28 -3.22,-7.12 -1.84,-1.83 -4.71,-3.22 -7.12,-3.22l-2.37 0 0 2.37c0,2.41 1.39,5.28 3.22,7.12 1.84,1.84 4.71,3.22 7.12,3.22l2.37 0 0 -2.37zm-1.52 0.85c0,-2.54 -1.01,-4.99 -2.84,-6.83 -1.83,-1.83 -4.28,-2.83 -6.83,-2.84 0.01,2.55 1.01,5 2.84,6.83 1.84,1.83 4.29,2.84 6.83,2.84z"/>
    <path class="fil1" d="M25.42 48.46c0,-2.41 1.38,-5.28 3.22,-7.12 1.83,-1.83 4.7,-3.22 7.12,-3.22l2.36 0 0 2.37c0,2.41 -1.38,5.28 -3.22,7.12 -1.84,1.84 -4.71,3.22 -7.12,3.22l-2.36 0 0 -2.37zm1.51 0.85c0.01,-2.54 1.02,-4.99 2.85,-6.83 1.83,-1.83 4.28,-2.83 6.83,-2.84 -0.01,2.55 -1.02,5 -2.85,6.83 -1.83,1.83 -4.28,2.84 -6.83,2.84z"/>
    <path class="fil1" d="M50.83 27.78c0,2.41 -1.38,5.28 -3.22,7.12 -1.84,1.84 -4.71,3.22 -7.12,3.22l-2.37 0 0 -2.36c0,-2.42 1.39,-5.29 3.22,-7.12 1.84,-1.84 4.71,-3.22 7.12,-3.22l2.37 0 0 2.36zm-1.52 -0.85c0,2.55 -1.01,5 -2.84,6.83 -1.83,1.83 -4.28,2.84 -6.83,2.85 0.01,-2.55 1.01,-5 2.84,-6.83 1.84,-1.83 4.29,-2.84 6.83,-2.85z"/>
    <path class="fil1" d="M25.42 27.78c0,2.41 1.38,5.28 3.22,7.12 1.83,1.84 4.7,3.22 7.12,3.22l2.36 0 0 -2.36c0,-2.42 -1.38,-5.29 -3.22,-7.12 -1.84,-1.84 -4.71,-3.22 -7.12,-3.22l-2.36 0 0 2.36zm1.51 -0.85c0.01,2.55 1.02,5 2.85,6.83 1.83,1.83 4.28,2.84 6.83,2.85 -0.01,-2.55 -1.02,-5 -2.85,-6.83 -1.83,-1.83 -4.28,-2.84 -6.83,-2.85z"/>
    <path class="fil1" d="M50.83 53.2c0,2.41 -1.38,5.28 -3.22,7.12 -1.84,1.83 -4.71,3.22 -7.12,3.22l-2.37 0 0 -2.37c0,-2.41 1.39,-5.28 3.22,-7.12 1.84,-1.83 4.71,-3.22 7.12,-3.22l2.37 0 0 2.37zm-1.52 -0.85c0,2.54 -1.01,4.99 -2.84,6.83 -1.83,1.83 -4.28,2.83 -6.83,2.84 0.01,-2.54 1.01,-5 2.84,-6.83 1.84,-1.83 4.29,-2.83 6.83,-2.84z"/>
    <path class="fil1" d="M25.42 53.2c0,2.41 1.38,5.28 3.22,7.12 1.83,1.83 4.7,3.22 7.12,3.22l2.36 0 0 -2.37c0,-2.41 -1.38,-5.28 -3.22,-7.12 -1.84,-1.83 -4.71,-3.22 -7.12,-3.22l-2.36 0 0 2.37zm1.51 -0.85c0.01,2.54 1.02,4.99 2.85,6.83 1.83,1.83 4.28,2.83 6.83,2.84 -0.01,-2.54 -1.02,-5 -2.85,-6.83 -1.83,-1.83 -4.28,-2.83 -6.83,-2.84z"/>
    <path class="fil1" d="M50.83 73.88c0,-2.41 -1.38,-5.28 -3.22,-7.12 -1.84,-1.84 -4.71,-3.22 -7.12,-3.22l-2.37 0 0 2.37c0,2.41 1.39,5.28 3.22,7.11 1.84,1.84 4.71,3.23 7.12,3.23l2.37 0 0 -2.37zm-1.52 0.85c0,-2.55 -1.01,-5 -2.84,-6.83 -1.83,-1.83 -4.28,-2.84 -6.83,-2.85 0.01,2.55 1.01,5 2.84,6.83 1.84,1.84 4.29,2.84 6.83,2.85z"/>
    <path class="fil1" d="M25.42 73.88c0,-2.41 1.38,-5.28 3.22,-7.12 1.83,-1.84 4.7,-3.22 7.12,-3.22l2.36 0 0 2.37c0,2.41 -1.38,5.28 -3.22,7.11 -1.84,1.84 -4.71,3.23 -7.12,3.23l-2.36 0 0 -2.37zm1.51 0.85c0.01,-2.55 1.02,-5 2.85,-6.83 1.83,-1.83 4.28,-2.84 6.83,-2.85 -0.01,2.55 -1.02,5 -2.85,6.83 -1.83,1.84 -4.28,2.84 -6.83,2.85z"/>
   </g>
   <g>
    <path class="fil1" d="M50.83 2.37c0,2.41 1.39,5.28 3.22,7.12 1.84,1.83 4.71,3.22 7.12,3.22l2.37 0 0 -2.37c0,-2.41 -1.39,-5.28 -3.22,-7.12 -1.84,-1.83 -4.71,-3.22 -7.12,-3.22l-2.37 0 0 2.37zm1.52 -0.85c0.01,2.54 1.01,4.99 2.84,6.83 1.83,1.83 4.29,2.83 6.83,2.84 -0.01,-2.55 -1.01,-5 -2.84,-6.83 -1.84,-1.83 -4.29,-2.83 -6.83,-2.84z"/>
    <path class="fil1" d="M76.25 2.37c0,2.41 -1.39,5.28 -3.23,7.12 -1.83,1.83 -4.7,3.22 -7.11,3.22l-2.37 0 0 -2.37c0,-2.41 1.38,-5.28 3.22,-7.12 1.84,-1.83 4.71,-3.22 7.12,-3.22l2.37 0 0 2.37zm-1.52 -0.85c-0.01,2.54 -1.01,4.99 -2.85,6.83 -1.83,1.83 -4.28,2.83 -6.83,2.84 0.01,-2.55 1.02,-5 2.85,-6.83 1.83,-1.83 4.28,-2.83 6.83,-2.84z"/>
    <path class="fil1" d="M50.83 23.05c0,-2.41 1.39,-5.28 3.22,-7.12 1.84,-1.84 4.71,-3.22 7.12,-3.22l2.37 0 0 2.37c0,2.41 -1.39,5.28 -3.22,7.11 -1.84,1.84 -4.71,3.23 -7.12,3.23l-2.37 0 0 -2.37zm1.52 0.85c0.01,-2.55 1.01,-5 2.84,-6.83 1.83,-1.83 4.29,-2.84 6.83,-2.85 -0.01,2.55 -1.01,5 -2.84,6.83 -1.84,1.84 -4.29,2.84 -6.83,2.85z"/>
    <path class="fil1" d="M76.25 23.05c0,-2.41 -1.39,-5.28 -3.23,-7.12 -1.83,-1.84 -4.7,-3.22 -7.11,-3.22l-2.37 0 0 2.37c0,2.41 1.38,5.28 3.22,7.11 1.84,1.84 4.71,3.23 7.12,3.23l2.37 0 0 -2.37zm-1.52 0.85c-0.01,-2.55 -1.01,-5 -2.85,-6.83 -1.83,-1.83 -4.28,-2.84 -6.83,-2.85 0.01,2.55 1.02,5 2.85,6.83 1.83,1.84 4.28,2.84 6.83,2.85z"/>
    <path class="fil1" d="M50.83 48.46c0,-2.41 1.39,-5.28 3.22,-7.12 1.84,-1.83 4.71,-3.22 7.12,-3.22l2.37 0 0 2.37c0,2.41 -1.39,5.28 -3.22,7.12 -1.84,1.84 -4.71,3.22 -7.12,3.22l-2.37 0 0 -2.37zm1.52 0.85c0.01,-2.54 1.01,-4.99 2.84,-6.83 1.83,-1.83 4.29,-2.83 6.83,-2.84 -0.01,2.55 -1.01,5 -2.84,6.83 -1.84,1.83 -4.29,2.84 -6.83,2.84z"/>
    <path class="fil1" d="M76.25 48.46c0,-2.41 -1.39,-5.28 -3.23,-7.12 -1.83,-1.83 -4.7,-3.22 -7.11,-3.22l-2.37 0 0 2.37c0,2.41 1.38,5.28 3.22,7.12 1.84,1.84 4.71,3.22 7.12,3.22l2.37 0 0 -2.37zm-1.52 0.85c-0.01,-2.54 -1.01,-4.99 -2.85,-6.83 -1.83,-1.83 -4.28,-2.83 -6.83,-2.84 0.01,2.55 1.02,5 2.85,6.83 1.83,1.83 4.28,2.84 6.83,2.84z"/>
    <path class="fil1" d="M50.83 27.78c0,2.41 1.39,5.28 3.22,7.12 1.84,1.84 4.71,3.22 7.12,3.22l2.37 0 0 -2.36c0,-2.42 -1.39,-5.29 -3.22,-7.12 -1.84,-1.84 -4.71,-3.22 -7.12,-3.22l-2.37 0 0 2.36zm1.52 -0.85c0.01,2.55 1.01,5 2.84,6.83 1.83,1.83 4.29,2.84 6.83,2.85 -0.01,-2.55 -1.01,-5 -2.84,-6.83 -1.84,-1.83 -4.29,-2.84 -6.83,-2.85z"/>
    <path class="fil1" d="M76.25 27.78c0,2.41 -1.39,5.28 -3.23,7.12 -1.83,1.84 -4.7,3.22 -7.11,3.22l-2.37 0 0 -2.36c0,-2.42 1.38,-5.29 3.22,-7.12 1.84,-1.84 4.71,-3.22 7.12,-3.22l2.37 0 0 2.36zm-1.52 -0.85c-0.01,2.55 -1.01,5 -2.85,6.83 -1.83,1.83 -4.28,2.84 -6.83,2.85 0.01,-2.55 1.02,-5 2.85,-6.83 1.83,-1.83 4.28,-2.84 6.83,-2.85z"/>
    <path class="fil1" d="M50.83 53.2c0,2.41 1.39,5.28 3.22,7.12 1.84,1.83 4.71,3.22 7.12,3.22l2.37 0 0 -2.37c0,-2.41 -1.39,-5.28 -3.22,-7.12 -1.84,-1.83 -4.71,-3.22 -7.12,-3.22l-2.37 0 0 2.37zm1.52 -0.85c0.01,2.54 1.01,4.99 2.84,6.83 1.83,1.83 4.29,2.83 6.83,2.84 -0.01,-2.54 -1.01,-5 -2.84,-6.83 -1.84,-1.83 -4.29,-2.83 -6.83,-2.84z"/>
    <path class="fil1" d="M76.25 53.2c0,2.41 -1.39,5.28 -3.23,7.12 -1.83,1.83 -4.7,3.22 -7.11,3.22l-2.37 0 0 -2.37c0,-2.41 1.38,-5.28 3.22,-7.12 1.84,-1.83 4.71,-3.22 7.12,-3.22l2.37 0 0 2.37zm-1.52 -0.85c-0.01,2.54 -1.01,4.99 -2.85,6.83 -1.83,1.83 -4.28,2.83 -6.83,2.84 0.01,-2.54 1.02,-5 2.85,-6.83 1.83,-1.83 4.28,-2.83 6.83,-2.84z"/>
    <path class="fil1" d="M50.83 73.88c0,-2.41 1.39,-5.28 3.22,-7.12 1.84,-1.84 4.71,-3.22 7.12,-3.22l2.37 0 0 2.37c0,2.41 -1.39,5.28 -3.22,7.11 -1.84,1.84 -4.71,3.23 -7.12,3.23l-2.37 0 0 -2.37zm1.52 0.85c0.01,-2.55 1.01,-5 2.84,-6.83 1.83,-1.83 4.29,-2.84 6.83,-2.85 -0.01,2.55 -1.01,5 -2.84,6.83 -1.84,1.84 -4.29,2.84 -6.83,2.85z"/>
    <path class="fil1" d="M76.25 73.88c0,-2.41 -1.39,-5.28 -3.23,-7.12 -1.83,-1.84 -4.7,-3.22 -7.11,-3.22l-2.37 0 0 2.37c0,2.41 1.38,5.28 3.22,7.11 1.84,1.84 4.71,3.23 7.12,3.23l2.37 0 0 -2.37zm-1.52 0.85c-0.01,-2.55 -1.01,-5 -2.85,-6.83 -1.83,-1.83 -4.28,-2.84 -6.83,-2.85 0.01,2.55 1.02,5 2.85,6.83 1.83,1.84 4.28,2.84 6.83,2.85z"/>
   </g>
  </g>
 </g>
</svg>
